HIERARCHY
ROOT hip
{
	OFFSET 0.000000 0.000000 0.000000 
	CHANNELS 6 Xposition Yposition Zposition Xrotation Zrotation Yrotation
	JOINT abdomen
	{
		OFFSET 0.000000 3.402643 0.000000 
		CHANNELS 3 Xrotation Zrotation Yrotation
		JOINT chest
		{
			OFFSET 0.000000 8.438565 -0.680529 
			CHANNELS 3 Xrotation Zrotation Yrotation
			JOINT neck
			{
				OFFSET 0.000000 10.207942 -0.272212 
				CHANNELS 3 Xrotation Zrotation Yrotation
				JOINT head
				{
					OFFSET 0.000000 3.130431 0.000000 
					CHANNELS 3 Xrotation Zrotation Yrotation
					End Site
					{
						OFFSET 0.000000 3.130435 0.000000 
					}
				}
			}
			JOINT lCollar
			{
				OFFSET 3.470700 6.669187 -0.816635 
				CHANNELS 3 Yrotation Zrotation Xrotation
				JOINT lShldr
				{
					OFFSET 3.198488 0.000000 0.000000 
					CHANNELS 3 Zrotation Yrotation Xrotation
					JOINT lForeArm
					{
						OFFSET 10.139888 0.000000 0.000000 
						CHANNELS 3 Yrotation Zrotation Xrotation
						JOINT lHand
						{
							OFFSET 8.370511 0.000000 0.000000 
							CHANNELS 3 Zrotation Yrotation Xrotation
							End Site
							{
								OFFSET 4.083176 0.000000 0.000000 
							}
						}
					}
				}
			}
			JOINT rCollar
			{
				OFFSET -3.470700 6.669187 -0.816635 
				CHANNELS 3 Yrotation Zrotation Xrotation
				JOINT rShldr
				{
					OFFSET -3.198488 0.000000 0.000000 
					CHANNELS 3 Zrotation Yrotation Xrotation
					JOINT rForeArm
					{
						OFFSET -10.139888 0.000000 0.000000 
						CHANNELS 3 Yrotation Zrotation Xrotation
						JOINT rHand
						{
							OFFSET -8.370511 0.000000 0.000000 
							CHANNELS 3 Zrotation Yrotation Xrotation
							End Site
							{
								OFFSET -4.083176 0.000000 0.000000 
							}
						}
					}
				}
			}
		}
	}
	JOINT lThigh
	{
		OFFSET 5.308129 -1.633274 1.361059 
		CHANNELS 3 Xrotation Zrotation Yrotation
		JOINT lShin
		{
			OFFSET -2.041588 -20.007561 0.000000 
			CHANNELS 3 Xrotation Zrotation Yrotation
			JOINT lFoot
			{
				OFFSET 0.000000 -19.190928 -1.224953 
				CHANNELS 3 Xrotation Yrotation Zrotation
				End Site
				{
					OFFSET 0.000000 -2.449906 4.627600 
				}
			}
		}
	}
	JOINT rThigh
	{
		OFFSET -5.308129 -1.633274 1.361059 
		CHANNELS 3 Xrotation Zrotation Yrotation
		JOINT rShin
		{
			OFFSET 2.041588 -20.007561 0.000000 
			CHANNELS 3 Xrotation Zrotation Yrotation
			JOINT rFoot
			{
				OFFSET 0.000000 -19.190928 -1.224953 
				CHANNELS 3 Xrotation Yrotation Zrotation
				End Site
				{
					OFFSET 0.000000 -2.449906 4.627600 
				}
			}
		}
	}
}
MOTION
Frames: 17
Frame Time: 0.033333
-0.621497 47.870487 1.718052 -0.588892 0.789057 4.033627 0.000000 0.000000 0.000000 -2.294565 0.141194 0.663508 5.574561 -0.107410 0.859373 3.007393 -0.136718 0.175781 -0.976538 9.742895 -1.388537 -6.154832 0.512555 -5.201291 -0.003175 -5.002632 8.959630 -2.596211 -6.047407 -3.149994 1.843148 -7.929181 -1.438281 1.436871 -14.243945 -9.346358 -0.002146 4.457399 14.504764 0.164846 8.706001 -3.315032 -2.811332 6.675681 4.036569 18.242085 -1.583333 9.894670 -12.960012 0.989676 -7.969964 -1.201359 -10.700845 -7.769547 18.198826 3.493221 -5.099410 -14.167772 -0.890231 7.475450 
-0.619902 47.869984 1.704913 -0.638122 0.798874 3.955510 0.000000 0.000000 0.000000 -2.255352 0.103611 0.784765 5.575546 -0.039058 0.917968 3.144022 -0.175781 0.166015 -0.998343 9.928175 -1.348397 -6.263577 0.522153 -5.204349 0.000526 -5.009279 8.764231 -2.757926 -5.968338 -3.137237 1.950796 -7.744792 -1.398198 1.278196 -14.376790 -9.237285 -0.003233 4.454975 14.396933 0.192723 8.736940 -3.310237 -2.732861 6.674494 4.074920 18.233763 -1.583728 9.933886 -12.956871 0.989930 -8.002584 -1.191398 -10.738608 -7.813188 18.214205 3.500112 -5.009324 -14.179442 -0.902201 7.469308 
-0.619256 47.870731 1.699796 -0.698861 0.779444 3.896919 0.000000 0.000000 0.000000 -2.245477 0.091518 0.864379 5.557253 0.039058 0.898444 3.524372 -0.332030 0.175778 -0.930656 10.043428 -1.329199 -6.307725 0.470458 -5.189699 -0.001219 -5.001121 8.871232 -2.529683 -6.023740 -3.147442 2.011063 -7.677870 -1.398149 1.257893 -14.407176 -9.099498 0.000737 4.502295 14.191712 0.175438 8.863109 -3.311675 -2.674478 6.714162 4.144784 18.243502 -1.612890 9.997359 -12.973210 0.964052 -8.005171 -1.113881 -10.709943 -7.821758 18.191589 3.497176 -4.924242 -14.172067 -0.893228 7.430079 
-0.616217 47.866955 1.696375 -0.770506 0.740515 3.848092 0.000000 0.000000 0.000000 -2.245556 0.145257 0.810262 5.517272 -0.019529 0.898438 3.837436 -0.205078 0.126952 -0.842824 9.895266 -1.348460 -6.165084 0.525535 -5.163579 -0.000611 -5.002633 8.988815 -2.408241 -6.085469 -3.157481 2.027368 -7.863489 -1.388455 1.403859 -14.255184 -9.090576 -0.007493 4.568590 14.085388 0.138633 8.841331 -3.306764 -2.645450 6.763953 4.195772 18.329874 -1.612597 9.944118 -13.016948 0.995304 -8.000884 -1.084075 -10.668199 -7.780552 18.221754 3.484479 -4.865547 -14.166294 -0.920623 7.415639 
-0.612674 47.866199 1.691169 -0.774555 0.682061 3.838200 0.000000 0.000000 0.000000 -2.255466 0.213845 0.705698 5.524972 -0.146465 0.927731 3.691436 0.019531 0.087894 -0.855580 9.700379 -1.358064 -5.932149 0.683376 -5.077197 -0.003754 -5.009277 8.714737 -2.565716 -6.065273 -3.152091 1.993441 -7.941568 -1.407806 1.454301 -14.070971 -9.218700 -0.004090 4.563877 14.310793 0.033541 8.776623 -3.323837 -2.663042 6.817145 4.227440 18.378073 -1.592916 9.876075 -13.039457 0.954312 -8.022244 -1.084224 -10.629612 -7.768467 18.170504 3.503267 -4.924730 -14.111210 -0.880420 7.435770 
-0.611979 47.867336 1.688547 -0.835777 0.652874 3.779607 0.000000 0.000000 0.000000 -2.245625 0.239723 0.771921 5.583641 -0.146466 0.898435 3.564453 0.000000 0.009766 -0.826620 9.826331 -1.338842 -6.026631 0.647758 -5.055899 -0.004122 -5.006352 8.489300 -2.666620 -6.178735 -3.144788 1.918136 -7.880763 -1.398214 1.465530 -13.991969 -9.357149 -0.000734 4.500100 14.603597 0.041687 8.806437 -3.322059 -2.596542 6.861772 4.268270 18.407013 -1.592243 9.865109 -13.059216 0.999667 -7.977488 -1.025713 -10.590258 -7.747953 18.147812 3.512078 -4.895608 -14.074064 -0.875524 7.404676 
-0.613431 47.864941 1.687524 -0.919985 0.565194 3.750202 0.000000 0.000000 0.000000 -2.245566 0.254040 0.819615 5.634336 -0.029294 0.839844 3.554721 -0.097656 -0.019548 -0.762018 10.078821 -1.338877 -6.244303 0.521800 -5.223585 -0.008033 -5.009272 8.666096 -2.676411 -6.198289 -3.133008 1.999375 -7.755736 -1.398156 1.435620 -14.085521 -9.329813 -0.000050 4.488201 14.505500 0.083077 8.750219 -3.326343 -2.577542 6.989708 4.332655 18.536938 -1.642435 9.781953 -13.156852 0.994698 -7.981868 -0.928416 -10.469729 -7.693959 18.085747 3.523929 -4.898656 -14.057903 -0.905473 7.399720 
-0.605980 47.860291 1.682253 -0.960325 0.535917 3.818557 0.000000 0.000000 0.000000 -2.274955 0.287415 0.757611 5.654297 0.000000 0.791016 3.535156 -0.126953 -0.000022 -0.735310 10.088637 -1.379050 -6.228331 0.433684 -5.321820 -0.008033 -5.009272 8.666096 -2.582096 -6.124776 -3.147038 2.044206 -7.757964 -1.427122 1.474413 -14.119061 -9.345840 -0.007354 4.495227 14.446343 0.126539 8.684245 -3.321161 -2.625803 7.047027 4.414100 18.665276 -1.659215 9.587212 -13.189029 0.998323 -7.958952 -0.879515 -10.472136 -7.744617 18.083942 3.532917 -4.897526 -14.062900 -0.873174 7.416666 
-0.590983 47.861305 1.676656 -0.967391 0.574886 3.828324 0.000000 0.000000 0.000000 -2.314009 0.267971 0.759446 5.614961 -0.019529 0.800781 3.554688 -0.146484 0.000000 -0.819917 10.013038 -1.409558 -6.130410 0.452128 -5.233685 -0.004122 -5.006352 8.489300 -2.360343 -6.044221 -3.174197 2.001663 -7.738498 -1.457487 1.463660 -14.101127 -9.353214 -0.000657 4.478747 14.544444 0.265751 8.672644 -3.299298 -2.595896 7.035207 4.442781 18.611849 -1.751752 9.449961 -13.189949 0.987569 -7.833496 -0.869442 -10.547309 -7.808471 18.089314 3.550928 -4.865007 -14.062605 -0.865217 7.409995 
-0.577400 47.858650 1.677860 -0.965884 0.594360 3.847956 0.000000 0.000000 0.000000 -2.372594 0.278612 0.768251 5.546056 -0.058588 0.800781 3.701218 -0.136719 -0.019555 -0.910694 9.947843 -1.457594 -6.065368 0.523234 -5.082952 -0.000700 -5.006354 8.528212 -2.162551 -6.081710 -3.182906 1.943037 -7.759115 -1.526544 1.451239 -14.044165 -9.380121 0.001483 4.488201 14.485264 0.512515 8.657463 -3.272629 -2.585599 7.043327 4.511822 18.663328 -1.795381 9.362135 -13.279449 0.968010 -7.801602 -0.898536 -10.599399 -7.850315 18.142290 3.581679 -4.837695 -14.085870 -0.888941 7.397943 
-0.563946 47.855881 1.671733 -0.945594 0.604097 3.857722 0.000000 0.000000 0.000000 -2.411649 0.289254 0.777056 5.438210 -0.087882 0.810546 3.945376 -0.185547 -0.019563 -0.887573 9.889234 -1.488135 -6.041613 0.476592 -5.077607 -0.005465 -5.009276 8.695280 -2.171812 -6.091994 -3.181443 1.897316 -7.856677 -1.555583 1.549911 -14.000456 -9.536800 -0.006714 4.457395 14.563179 0.613591 8.594895 -3.268910 -2.645429 7.037670 4.541723 18.726591 -1.865150 9.397175 -13.290955 0.959262 -7.773588 -0.918436 -10.663200 -7.883336 18.179825 3.639827 -4.807083 -14.094408 -0.886791 7.410171 
-0.541054 47.855881 1.661786 -0.939989 0.682021 3.887024 0.000000 0.000000 0.000000 -2.431190 0.218440 0.754311 5.350773 -0.058588 0.771484 4.003687 -0.322266 0.039062 -0.754902 9.847456 -1.526665 -6.051055 0.328512 -5.258673 -0.004638 -5.001119 8.832318 -2.290618 -6.059913 -3.180497 1.936370 -7.809247 -1.565221 1.522752 -14.093854 -9.518979 -0.002194 4.440946 14.690485 0.573585 8.602412 -3.274564 -2.665293 6.940516 4.478807 18.671309 -1.885995 9.543373 -13.213902 0.998592 -7.697044 -0.947427 -10.754581 -7.927340 18.213362 3.618340 -4.787816 -14.100661 -0.882408 7.445570 
-0.509587 47.853504 1.648406 -0.896420 0.750232 3.877388 0.000000 0.000000 0.000000 -2.489782 0.178632 0.748258 5.379545 -0.097647 0.771483 3.720497 -0.302734 0.039062 -0.717364 9.779092 -1.586068 -6.043809 0.336412 -5.377186 -0.006347 -5.001117 8.812861 -2.533062 -6.122093 -3.152246 1.908532 -7.820437 -1.624584 1.530013 -14.033677 -9.550602 -0.004898 4.415098 14.944364 0.631062 8.634999 -3.265217 -2.724328 6.776301 4.384035 18.687428 -1.858470 9.634392 -13.243250 0.997796 -7.698040 -1.045300 -10.897060 -7.952902 18.319574 3.621123 -4.702563 -14.108550 -0.888412 7.475275 
-0.488641 47.862930 1.634197 -0.911327 0.691851 3.779611 0.000000 0.000000 0.000000 -2.479944 0.263763 0.818698 5.360479 -0.058588 0.830078 3.720345 -0.419922 0.048827 -0.807856 9.868934 -1.557176 -6.154795 0.492415 -5.297347 -0.007177 -5.009274 8.675824 -2.745070 -6.202021 -3.125625 1.929176 -7.781938 -1.624568 1.506631 -14.048251 -9.602545 -0.005726 4.374843 14.963120 0.781204 8.751225 -3.250456 -2.546238 6.808010 4.383282 18.561981 -1.849138 9.175010 -13.314480 1.005923 -7.575052 -0.976906 -10.876791 -7.953620 18.123423 3.640358 -4.635935 -14.005779 -0.911134 7.439546 
-0.473528 47.866955 1.623083 -0.994703 0.623689 3.711249 0.000000 0.000000 0.000000 -2.440862 0.335495 0.851166 5.361614 0.019529 0.839847 3.797929 -0.585937 0.087886 -0.771925 10.004031 -1.517043 -6.292728 0.499124 -5.300622 -0.008647 -5.007799 8.548512 -2.683005 -6.257246 -3.129911 1.994999 -7.713895 -1.584517 1.465250 -14.075148 -9.611696 -0.005260 4.384283 14.924169 0.900140 8.748105 -3.231374 -2.488246 6.888238 4.445307 18.611612 -1.865619 9.228283 -13.341239 0.987828 -7.584723 -0.859813 -10.820684 -7.983041 18.000221 3.687290 -4.530546 -13.908583 -0.886665 7.396006 
-0.452584 47.860535 1.607123 -0.991103 0.691959 3.642901 0.000000 0.000000 0.000000 -2.460395 0.285045 0.836308 5.360143 -0.078116 0.869140 3.837644 -0.361328 0.039062 -0.633023 9.893408 -1.547628 -6.220638 0.450751 -5.352960 -0.005833 -5.006350 8.469842 -2.758088 -6.144133 -3.127741 1.972778 -7.762506 -1.594200 1.472214 -13.955607 -9.641938 -0.002126 4.389319 15.130090 0.794988 8.683546 -3.249042 -2.645528 6.774172 4.422386 18.690651 -1.876136 9.758221 -13.226865 0.967969 -7.625896 -0.937933 -10.989605 -8.089643 18.157040 3.765638 -4.323005 -13.976675 -0.856501 7.369256 
-0.437723 47.863815 1.597937 -1.030383 0.701757 3.574548 0.000000 0.000000 0.000000 -2.450644 0.284126 0.826585 5.310050 -0.156231 0.898434 4.209007 -0.136719 -0.009789 -0.608094 9.794905 -1.536338 -6.135555 0.512238 -5.220534 -0.004368 -5.007805 8.597153 -2.676965 -6.169533 -3.144252 2.064393 -7.725180 -1.574775 1.403330 -13.995072 -9.530228 -0.007816 4.427038 15.071666 0.633613 8.762279 -3.262691 -2.586940 6.754409 4.440608 18.641668 -1.885807 9.788811 -13.174198 0.945942 -7.636146 -0.908429 -11.023504 -8.082705 18.129278 3.746446 -4.279200 -13.901557 -0.885869 7.363442 
